<svg width="55" height="55" viewBox="0 0 55 55" fill="none" xmlns="http://www.w3.org/2000/svg">
<path d="M0 30.72V23.808H10.88L19.712 24.96L20.352 23.552L13.184 18.176L5.504 10.368L10.368 5.632L18.048 13.312L23.552 20.352L24.96 19.712L23.808 10.88V0H30.72V10.88L29.568 19.712L30.976 20.352L36.48 13.312L44.16 5.632L49.024 10.368L41.344 18.176L34.176 23.552L34.816 24.96L43.648 23.808H54.528V30.72H43.648L34.816 29.696L34.176 30.976L41.344 36.48L49.024 44.16L44.16 49.024L36.48 41.344L30.976 34.176L29.568 34.816L30.72 43.648V54.528H23.808V43.648L24.96 34.816L23.552 34.176L18.048 41.344L10.368 49.024L5.504 44.16L13.184 36.48L20.352 30.976L19.712 29.696L10.88 30.72H0Z" fill="#189E48"/>
</svg>
